<svg id="图层_1" data-name="图层 1" xmlns="http://www.w3.org/2000/svg" viewBox="0 0 373.44 99.96"><defs></defs><title>[矢量图AI] 药明生物 WuXi Biologics_logo_2017</title><path class="cls-1" d="M318.38,194a13.63,13.63,0,0,0,7.79,1.94q5.41,0,8.19-2.32a7,7,0,0,0,2.76-5.56,5.67,5.67,0,0,0-2-4.61c-1.34-1.1-3.71-2-7.12-2.78s-5.37-1.33-5.95-1.74a1.39,1.39,0,0,1-.63-1.14,1.49,1.49,0,0,1,.72-1.25,7.06,7.06,0,0,1,3.6-.69,5.55,5.55,0,0,1,3.09.73,3.7,3.7,0,0,1,1.46,2.11l6-1.09a8.18,8.18,0,0,0-3.32-4.65q-2.39-1.56-7.34-1.56-5.2,0-7.66,2.07a6.48,6.48,0,0,0-2.48,5.14,6.06,6.06,0,0,0,2.86,5.3q2.07,1.35,9.78,3a5.58,5.58,0,0,1,2.13.81,1.69,1.69,0,0,1,.46,1.18,1.94,1.94,0,0,1-.85,1.66,6.49,6.49,0,0,1-3.71.88,5.81,5.81,0,0,1-3.51-.94,4.57,4.57,0,0,1-1.65-2.75l-6.41.94a9,9,0,0,0,3.78,5.3m-8.21-20.78a11.94,11.94,0,0,0-7-1.83,11.41,11.41,0,0,0-8.54,3.22q-3.15,3.26-3.15,9.08t3.13,9A11.23,11.23,0,0,0,303,195.9a11.85,11.85,0,0,0,7.42-2.14,10.7,10.7,0,0,0,3.74-6.34l-6.26-1a6.09,6.09,0,0,1-1.62,3.46,4.33,4.33,0,0,1-3,1,4.75,4.75,0,0,1-3.87-1.72c-1-1.15-1.44-3.12-1.44-5.91,0-2.51.47-4.29,1.41-5.36a4.85,4.85,0,0,1,3.81-1.62,4.07,4.07,0,0,1,4.35,3.71l6.28-1.11a10.42,10.42,0,0,0-3.72-5.64m-22-1.31h-6.38v23.52h6.38Zm0-8.93h-6.38v5.73h6.38Zm-26.31,14.9a4.74,4.74,0,0,1,3.78-1.73,4.94,4.94,0,0,1,3.91,1.76,8.18,8.18,0,0,1,1.55,5.43,7.62,7.62,0,0,1-1.62,5.27,5.05,5.05,0,0,1-3.94,1.78,4.69,4.69,0,0,1-3.68-1.73c-1-1.15-1.47-3-1.47-5.48s.49-4.14,1.47-5.3m-7.19,19.83a6.43,6.43,0,0,0,2.56,5.2c1.7,1.36,4.6,2,8.7,2a18.22,18.22,0,0,0,5.35-.67,8.56,8.56,0,0,0,3.39-1.84,7.62,7.62,0,0,0,2-3.22,20.24,20.24,0,0,0,.71-6.22v-21.1h-6v3.29a8.86,8.86,0,0,0-7.36-3.81,9.46,9.46,0,0,0-7.25,3.12q-2.92,3.1-2.92,9a13.31,13.31,0,0,0,2.23,7.88,8.9,8.9,0,0,0,7.69,4,8.65,8.65,0,0,0,7.2-3.83V195a9.2,9.2,0,0,1-.29,2.86,2.91,2.91,0,0,1-1.27,1.56,7.43,7.43,0,0,1-3.74.73,5,5,0,0,1-2.86-.65,2.4,2.4,0,0,1-.83-1.72l-7.28-.84c0,.28,0,.54,0,.73m-19.14-19.4a5.44,5.44,0,0,1,4.2-1.86,5.37,5.37,0,0,1,4.17,1.86,7.59,7.59,0,0,1,1.7,5.31,7.75,7.75,0,0,1-1.7,5.4,5.4,5.4,0,0,1-4.17,1.85,5.46,5.46,0,0,1-4.2-1.85,9.33,9.33,0,0,1,0-10.71m-6.68,11.9a10.15,10.15,0,0,0,4.58,4.27,14,14,0,0,0,6.31,1.46,12,12,0,0,0,12.42-12.34,11.82,11.82,0,0,0-3.5-8.75,12.18,12.18,0,0,0-8.95-3.46,13.52,13.52,0,0,0-6.42,1.52,10.6,10.6,0,0,0-4.44,4.43,12.49,12.49,0,0,0-1.56,6,14.06,14.06,0,0,0,1.56,6.87m-4.76-27.23h-6.37v32.45h6.37ZM198,178.27a5.66,5.66,0,0,1,8.39,0,7.64,7.64,0,0,1,1.69,5.31,7.8,7.8,0,0,1-1.69,5.4,5.68,5.68,0,0,1-8.39,0,9.28,9.28,0,0,1,0-10.71m-6.66,11.9a10.12,10.12,0,0,0,4.57,4.27,14,14,0,0,0,6.31,1.46,12,12,0,0,0,12.41-12.34,11.78,11.78,0,0,0-3.5-8.75,12.15,12.15,0,0,0-8.95-3.46,13.61,13.61,0,0,0-6.42,1.52,10.49,10.49,0,0,0-4.42,4.43,12.39,12.39,0,0,0-1.57,6,14,14,0,0,0,1.57,6.87m-4.77-18.3H180.2v23.52h6.37Zm0-8.93H180.2v5.73h6.37Zm-25.86,18.3a23.43,23.43,0,0,1,6,.46,4.26,4.26,0,0,1,2.1,1.48,4.2,4.2,0,0,1,.72,2.46,4,4,0,0,1-.94,2.79,4.29,4.29,0,0,1-2.43,1.28,31.58,31.58,0,0,1-4.61.2h-6.22v-8.67Zm-1.57-12.92c3.18,0,5.09,0,5.75.13a3.86,3.86,0,0,1,2.53,1.13,3.54,3.54,0,0,1,.84,2.45,3.31,3.31,0,0,1-1,2.52,4.52,4.52,0,0,1-2.7,1.18c-.64.07-2.26.1-4.89.1h-4.4v-7.51Zm-10.57,27.07H159.9c4.29,0,7-.12,8.09-.24a9.62,9.62,0,0,0,4.5-1.53,8.41,8.41,0,0,0,2.88-3.35,9.45,9.45,0,0,0,1.06-4.3,7.7,7.7,0,0,0-1.64-4.89,8.64,8.64,0,0,0-4.66-2.94,7.79,7.79,0,0,0,3.4-2.85,7.39,7.39,0,0,0,1.26-4.19,7.23,7.23,0,0,0-1-3.8,8.43,8.43,0,0,0-2.55-2.72,8.77,8.77,0,0,0-3.46-1.31,35.75,35.75,0,0,0-5.88-.33H148.57Zm-15.78-23.52h-6.38v23.52h6.38Zm0-8.93h-6.38v5.73h6.38ZM102,195.39l7.4-11.23,7.37,11.23h8.09L113.5,178.7l10.35-15.76h-7.78l-6.53,10.43-6.67-10.43H95l10.29,15.51L94,195.39Zm-9.46,0V171.87H86.19v9.92a24.28,24.28,0,0,1-.49,6.34,4.43,4.43,0,0,1-1.77,2.16,5.05,5.05,0,0,1-2.92.88,4,4,0,0,1-2.36-.65,3.25,3.25,0,0,1-1.28-1.77,28.64,28.64,0,0,1-.36-6.07V171.87H70.64v14.88A13,13,0,0,0,71.5,192a6.21,6.21,0,0,0,2.79,2.9,9,9,0,0,0,4.36,1,9.9,9.9,0,0,0,4.52-1.08,9,9,0,0,0,3.46-3v3.54Zm-50.87,0,6.6-24.26,6.62,24.26H62l8.09-32.45H63.32l-5.09,22.65L52.4,162.94h-8l-6.08,22.27-5-22.27H26.46l7.94,32.45Z" transform="translate(-26.46 -162.26)"></path><polygon class="cls-2" points="340.76 0 290 61.51 322.69 61.51 373.44 0 340.76 0"></polygon><polygon class="cls-3" points="251.17 46.13 238.49 61.51 322.73 61.51 335.36 46.13 251.17 46.13"></polygon><polygon class="cls-4" points="251.17 46.13 206.74 99.96 236.4 99.96 280.83 46.13 251.17 46.13"></polygon><polygon class="cls-5" points="268.13 61.51 280.83 46.13 251.17 46.13 238.49 61.51 268.13 61.51"></polygon><polygon class="cls-6" points="335.36 46.13 302.7 46.13 290 61.51 322.69 61.51 331.42 50.94 335.36 46.13"></polygon><polygon class="cls-7" points="1.94 99.96 19.07 79.34 253.43 79.34 236.29 99.96 1.94 99.96"></polygon><path class="cls-1" d="M34.58,217.9v-2.61h6.8v6.2a8.37,8.37,0,0,1-2.87,1.7,10.39,10.39,0,0,1-3.82.72,8.61,8.61,0,0,1-4.26-1A6.53,6.53,0,0,1,27.69,220a9.53,9.53,0,0,1-.91-4.17,8.88,8.88,0,0,1,1-4.33,6.79,6.79,0,0,1,3-2.91,8.06,8.06,0,0,1,3.74-.78A7.4,7.4,0,0,1,39.07,209a5.41,5.41,0,0,1,2.11,3.36l-3.13.6a3.34,3.34,0,0,0-1.25-1.82,3.73,3.73,0,0,0-2.27-.67,4.21,4.21,0,0,0-3.28,1.31A5.5,5.5,0,0,0,30,215.66a6.21,6.21,0,0,0,1.23,4.17,4.17,4.17,0,0,0,3.25,1.39,5.46,5.46,0,0,0,2-.39,6.72,6.72,0,0,0,1.7-1v-2Z" transform="translate(-26.46 -162.26)"></path><path class="cls-1" d="M43.39,223.67V208h3v15.63Z" transform="translate(-26.46 -162.26)"></path><path class="cls-1" d="M47.88,217.83a6,6,0,0,1,.75-2.89,5,5,0,0,1,2.07-2.12,6.22,6.22,0,0,1,3-.74,5.63,5.63,0,0,1,4.2,1.66,6.26,6.26,0,0,1,0,8.46,5.54,5.54,0,0,1-4.18,1.69,6.44,6.44,0,0,1-3-.69,4.87,4.87,0,0,1-2.13-2.06A6.78,6.78,0,0,1,47.88,217.83ZM51,218a3.81,3.81,0,0,0,.79,2.58,2.56,2.56,0,0,0,2,.88,2.51,2.51,0,0,0,2-.88,3.81,3.81,0,0,0,.8-2.61,3.68,3.68,0,0,0-.8-2.54,2.46,2.46,0,0,0-2-.9,2.52,2.52,0,0,0-2,.9A3.76,3.76,0,0,0,51,218Z" transform="translate(-26.46 -162.26)"></path><path class="cls-1" d="M60.91,223.67V208h3v5.61a4.32,4.32,0,0,1,3.29-1.57,4.46,4.46,0,0,1,3.41,1.48A6.27,6.27,0,0,1,72,217.87a6.6,6.6,0,0,1-1.37,4.47,4.31,4.31,0,0,1-3.35,1.55,4,4,0,0,1-1.91-.47A4.37,4.37,0,0,1,63.69,222v1.69Zm3-5.93a5.06,5.06,0,0,0,.54,2.61,2.4,2.4,0,0,0,2.08,1.18,2.07,2.07,0,0,0,1.69-.85,4.12,4.12,0,0,0,.69-2.66,4.44,4.44,0,0,0-.69-2.79,2.2,2.2,0,0,0-1.8-.85,2.24,2.24,0,0,0-1.79.82A3.85,3.85,0,0,0,63.88,217.74Z" transform="translate(-26.46 -162.26)"></path><path class="cls-1" d="M75.72,215.78,73,215.3a4.05,4.05,0,0,1,1.57-2.43,5.73,5.73,0,0,1,3.32-.79,7.38,7.38,0,0,1,3,.46,3.07,3.07,0,0,1,1.37,1.22,6.07,6.07,0,0,1,.4,2.68l0,3.49a14.46,14.46,0,0,0,.13,2.21,8.19,8.19,0,0,0,.55,1.53h-3c-.07-.22-.17-.52-.28-.91a1.2,1.2,0,0,0-.12-.34,5.63,5.63,0,0,1-1.64,1.12,4.81,4.81,0,0,1-1.86.35,4,4,0,0,1-2.75-.92,3.45,3.45,0,0,1-.55-4.13,3,3,0,0,1,1.29-1.14,9.33,9.33,0,0,1,2.38-.69,17.4,17.4,0,0,0,2.9-.74V216a1.53,1.53,0,0,0-.42-1.23,2.61,2.61,0,0,0-1.61-.36,2.07,2.07,0,0,0-1.24.3A2.31,2.31,0,0,0,75.72,215.78Zm4,2.43a18.41,18.41,0,0,1-1.82.46,6.1,6.1,0,0,0-1.64.52,1.33,1.33,0,0,0-.58,1.06,1.45,1.45,0,0,0,.47,1.08,1.64,1.64,0,0,0,1.2.46,2.56,2.56,0,0,0,1.54-.53,1.88,1.88,0,0,0,.72-1,5.94,5.94,0,0,0,.11-1.46Z" transform="translate(-26.46 -162.26)"></path><path class="cls-1" d="M84.75,223.67V208h3v15.63Z" transform="translate(-26.46 -162.26)"></path><path class="cls-1" d="M94.34,218.56l3.08-.29a3.82,3.82,0,0,0,1.12,2.28,3.48,3.48,0,0,0,2.29.71,3.58,3.58,0,0,0,2.3-.64,1.93,1.93,0,0,0,.76-1.51,1.44,1.44,0,0,0-.31-.94,2.6,2.6,0,0,0-1.13-.68c-.38-.12-1.24-.37-2.54-.68a8.66,8.66,0,0,1-3.56-1.54,4.1,4.1,0,0,1-1.44-3.14,4.14,4.14,0,0,1,.68-2.25,4.29,4.29,0,0,1,2-1.58,8,8,0,0,1,3.08-.54,6.67,6.67,0,0,1,4.43,1.29,4.64,4.64,0,0,1,1.56,3.43l-3.16.15a2.76,2.76,0,0,0-.86-1.73,3.17,3.17,0,0,0-2-.52,3.57,3.57,0,0,0-2.15.56,1.12,1.12,0,0,0-.5,1,1.19,1.19,0,0,0,.47.95,8,8,0,0,0,2.9,1,15.9,15.9,0,0,1,3.4,1.14,4.24,4.24,0,0,1,1.71,1.59,4.48,4.48,0,0,1,.64,2.48,4.55,4.55,0,0,1-.75,2.52,4.38,4.38,0,0,1-2.11,1.74,8.86,8.86,0,0,1-3.4.56,6.7,6.7,0,0,1-4.54-1.37A6,6,0,0,1,94.34,218.56Z" transform="translate(-26.46 -162.26)"></path><path class="cls-1" d="M108.12,217.83a6.11,6.11,0,0,1,.73-2.89,5,5,0,0,1,2.08-2.12,6.21,6.21,0,0,1,3-.74,5.65,5.65,0,0,1,4.21,1.66,6.28,6.28,0,0,1,0,8.46,5.53,5.53,0,0,1-4.16,1.69,6.44,6.44,0,0,1-3-.69,4.72,4.72,0,0,1-2.15-2.06A6.89,6.89,0,0,1,108.12,217.83Zm3.06.16a3.71,3.71,0,0,0,.8,2.58,2.56,2.56,0,0,0,2,.88,2.52,2.52,0,0,0,2-.88,3.81,3.81,0,0,0,.8-2.61,3.68,3.68,0,0,0-.8-2.54,2.48,2.48,0,0,0-2-.9,2.51,2.51,0,0,0-2,.9A3.67,3.67,0,0,0,111.18,218Z" transform="translate(-26.46 -162.26)"></path><path class="cls-1" d="M121.27,223.67V208h3v15.63Z" transform="translate(-26.46 -162.26)"></path><path class="cls-1" d="M133.91,223.67V222a4.7,4.7,0,0,1-1.64,1.42,4.38,4.38,0,0,1-2.13.51,4.18,4.18,0,0,1-2-.48,3,3,0,0,1-1.32-1.41,6.51,6.51,0,0,1-.39-2.5v-7.17h3v5.19a15.11,15.11,0,0,0,.16,2.92,1.57,1.57,0,0,0,.6.87,2,2,0,0,0,1.12.32,2.39,2.39,0,0,0,1.37-.43,2.23,2.23,0,0,0,.83-1,12,12,0,0,0,.23-3.06v-4.77h3v11.34Z" transform="translate(-26.46 -162.26)"></path><path class="cls-1" d="M144.08,212.33v2.38h-2v4.58a11,11,0,0,0,.06,1.6.63.63,0,0,0,.27.38.77.77,0,0,0,.5.16,3.91,3.91,0,0,0,1.19-.3l.27,2.32a5.79,5.79,0,0,1-2.37.44,4,4,0,0,1-1.46-.25,2.27,2.27,0,0,1-1-.72,2.81,2.81,0,0,1-.41-1.17,13.16,13.16,0,0,1-.1-2.1v-4.94h-1.37v-2.38H139v-2.24l3-1.75v4Z" transform="translate(-26.46 -162.26)"></path><path class="cls-1" d="M145.3,210.79V208h3v2.75Zm0,12.88V212.33h3v11.34Z" transform="translate(-26.46 -162.26)"></path><path class="cls-1" d="M149.79,217.83a6.12,6.12,0,0,1,.74-2.89,5,5,0,0,1,2.09-2.12,6.09,6.09,0,0,1,3-.74,5.67,5.67,0,0,1,4.21,1.66,6.25,6.25,0,0,1,0,8.46,5.52,5.52,0,0,1-4.17,1.69,6.37,6.37,0,0,1-3-.69,4.77,4.77,0,0,1-2.15-2.06A6.89,6.89,0,0,1,149.79,217.83Zm3.07.16a3.76,3.76,0,0,0,.8,2.58,2.54,2.54,0,0,0,2,.88,2.51,2.51,0,0,0,2-.88,3.76,3.76,0,0,0,.8-2.61,3.64,3.64,0,0,0-.8-2.54,2.46,2.46,0,0,0-2-.9,2.5,2.5,0,0,0-2,.9A3.71,3.71,0,0,0,152.86,218Z" transform="translate(-26.46 -162.26)"></path><path class="cls-1" d="M173.22,223.67h-3v-5.8a8.63,8.63,0,0,0-.2-2.36,1.56,1.56,0,0,0-.62-.85,1.74,1.74,0,0,0-1-.28,2.37,2.37,0,0,0-1.39.42,2.08,2.08,0,0,0-.86,1.12,11,11,0,0,0-.22,2.6v5.15h-3V212.33h2.79V214a4.5,4.5,0,0,1,3.73-1.91,4.09,4.09,0,0,1,1.8.37,2.74,2.74,0,0,1,1.25.9,3.32,3.32,0,0,1,.59,1.26,10.17,10.17,0,0,1,.15,2Z" transform="translate(-26.46 -162.26)"></path><path class="cls-1" d="M180.6,223.67V208h5.06a17.43,17.43,0,0,1,3.75.23,4.11,4.11,0,0,1,2.25,1.52,5,5,0,0,1,.91,3.05,5,5,0,0,1-.53,2.43,4.36,4.36,0,0,1-1.31,1.52,4.46,4.46,0,0,1-1.64.73,17.06,17.06,0,0,1-3.29.24h-2v5.91Zm3.16-13v4.42h1.72a7.86,7.86,0,0,0,2.49-.24,2.06,2.06,0,0,0,1.34-2,2,2,0,0,0-.49-1.41,2.25,2.25,0,0,0-1.27-.69,15.71,15.71,0,0,0-2.28-.1Z" transform="translate(-26.46 -162.26)"></path><path class="cls-1" d="M197.13,223.67h-3V212.33h2.78V214a4.74,4.74,0,0,1,1.29-1.5,2.19,2.19,0,0,1,1.29-.37,3.76,3.76,0,0,1,2,.56l-.94,2.63a2.37,2.37,0,0,0-1.38-.5,1.54,1.54,0,0,0-1.07.35,2.22,2.22,0,0,0-.69,1.25,17.3,17.3,0,0,0-.25,3.79Z" transform="translate(-26.46 -162.26)"></path><path class="cls-1" d="M201.18,217.83a6.12,6.12,0,0,1,.74-2.89,5.06,5.06,0,0,1,2.08-2.12,6.21,6.21,0,0,1,3-.74,5.69,5.69,0,0,1,4.22,1.66,6.25,6.25,0,0,1,0,8.46,5.56,5.56,0,0,1-4.17,1.69,6.48,6.48,0,0,1-3-.69,4.84,4.84,0,0,1-2.14-2.06A6.89,6.89,0,0,1,201.18,217.83Zm3.07.16a3.76,3.76,0,0,0,.79,2.58,2.59,2.59,0,0,0,2,.88,2.49,2.49,0,0,0,2-.88,3.76,3.76,0,0,0,.8-2.61,3.64,3.64,0,0,0-.8-2.54,2.45,2.45,0,0,0-2-.9,2.55,2.55,0,0,0-2,.9A3.71,3.71,0,0,0,204.25,218Z" transform="translate(-26.46 -162.26)"></path><path class="cls-1" d="M217.44,223.67l-4.56-11.34H216l2.12,5.78.63,1.93c.16-.5.25-.81.3-1,.11-.31.21-.65.33-1l2.15-5.78h3.07l-4.49,11.34Z" transform="translate(-26.46 -162.26)"></path><path class="cls-1" d="M225.59,210.79V208h3v2.75Zm0,12.88V212.33h3v11.34Z" transform="translate(-26.46 -162.26)"></path><path class="cls-1" d="M241.16,223.67h-2.79V222a4.48,4.48,0,0,1-1.63,1.45,4.08,4.08,0,0,1-1.89.46,4.31,4.31,0,0,1-3.35-1.55,6.44,6.44,0,0,1-1.4-4.39,6.25,6.25,0,0,1,1.38-4.39,4.39,4.39,0,0,1,3.4-1.48,4.3,4.3,0,0,1,3.29,1.57V208h3Zm-8-5.93a5.46,5.46,0,0,0,.49,2.64,2.3,2.3,0,0,0,2,1.15,2.15,2.15,0,0,0,1.75-.88,4,4,0,0,0,.73-2.62,4.41,4.41,0,0,0-.7-2.8,2.22,2.22,0,0,0-1.81-.85,2.24,2.24,0,0,0-1.78.83A3.84,3.84,0,0,0,233.17,217.74Z" transform="translate(-26.46 -162.26)"></path><path class="cls-1" d="M249.78,220.05l3,.51a4.93,4.93,0,0,1-1.81,2.49,5.39,5.39,0,0,1-3.11.84,5.09,5.09,0,0,1-4.37-1.91,6.48,6.48,0,0,1-1.13-3.9,6.24,6.24,0,0,1,1.49-4.42,4.87,4.87,0,0,1,3.71-1.58,5,5,0,0,1,4,1.66q1.47,1.68,1.39,5.11h-7.5a3,3,0,0,0,.73,2.06,2.19,2.19,0,0,0,1.72.76,1.94,1.94,0,0,0,1.19-.38A2.36,2.36,0,0,0,249.78,220.05Zm.18-3a2.92,2.92,0,0,0-.67-2,2.17,2.17,0,0,0-3.18,0,2.68,2.68,0,0,0-.63,1.93Z" transform="translate(-26.46 -162.26)"></path><path class="cls-1" d="M257.36,223.67h-3V212.33h2.77V214a4.74,4.74,0,0,1,1.29-1.5,2.22,2.22,0,0,1,1.29-.37,3.77,3.77,0,0,1,2,.56l-.93,2.63a2.47,2.47,0,0,0-1.4-.5,1.55,1.55,0,0,0-1.07.35,2.22,2.22,0,0,0-.68,1.25,16.46,16.46,0,0,0-.26,3.79Z" transform="translate(-26.46 -162.26)"></path></svg>